# xmcd CD database file
#
# Track frame offsets:
#	150
#	16298
#	36276
#	56414
#	69686
#	90341
#	110773
#	129608
#	143684
#	161890
#
# Disc length: 2442 seconds
#
# Revision: 0
# Processed by: cddbd v1.5.2PL0 Copyright (c) Steve Scherf et al.
# Submitted via: CDex 1.51
#
DISCID=8809880a
DTITLE=Ruby Boots - Don't Talk About It
DYEAR=2018
DGENRE=Country
TTITLE0=It's So Cruel
TTITLE1=Believe In Heaven
TTITLE2=Don't Talk About It
TTITLE3=Easy Way Out
TTITLE4=Don't Break My Heart Twice
TTITLE5=I'll Make It Through
TTITLE6=Somebody Else
TTITLE7=I Am A Woman
TTITLE8=Infatuation
TTITLE9=Don't Give A Damn
EXTD=YEAR: 2018
EXTT0=
EXTT1=
EXTT2=
EXTT3=
EXTT4=
EXTT5=
EXTT6=
EXTT7=
EXTT8=
EXTT9=
PLAYORDER=
